<svg id="レイヤー_1" data-name="レイヤー 1" xmlns="http://www.w3.org/2000/svg" viewBox="0 0 32 32"><title>instagram</title><path d="M23.2,0H8.8A8.9,8.9,0,0,0,0,8.8V23.2A8.9,8.9,0,0,0,8.8,32H23.2A8.9,8.9,0,0,0,32,23.2V8.8A8.9,8.9,0,0,0,23.2,0Zm6,23.2a6,6,0,0,1-6,6H8.8a6,6,0,0,1-6-6V8.8a6,6,0,0,1,6-6H23.2a6,6,0,0,1,6,6Zm0,0"/><path d="M16,7.8A8.2,8.2,0,1,0,24.2,16,8.2,8.2,0,0,0,16,7.8Zm0,13.6A5.4,5.4,0,1,1,21.4,16,5.4,5.4,0,0,1,16,21.4Zm0,0"/><path d="M24.6,5.3a2.1,2.1,0,0,0-1.5.7,1.8,1.8,0,0,0-.6,1.4,2.1,2.1,0,0,0,2.1,2.1,2.2,2.2,0,0,0,1.5-.6,2,2,0,0,0,.6-1.5A1.8,1.8,0,0,0,26.1,6a2.3,2.3,0,0,0-1.5-.7Zm0,0"/></svg>