<?xml version="1.0" encoding="utf-8"?>
<!-- Generator: Adobe Illustrator 23.0.1, SVG Export Plug-In . SVG Version: 6.00 Build 0)  -->
<svg version="1.1" id="レイヤー_1" xmlns="http://www.w3.org/2000/svg" xmlns:xlink="http://www.w3.org/1999/xlink" x="0px"
	 y="0px" viewBox="0 0 452.3 343.6" style="enable-background:new 0 0 452.3 343.6;" xml:space="preserve">
<style type="text/css">
	.st0{stroke:#000000;stroke-width:2.0851;stroke-miterlimit:10;}
</style>
<g>
	<g>
		<path class="st0" d="M42.5,154.4c-16.7,0.2-32.1,8.5-41.4,22.4c-0.2,0.4-0.1,0.8,0.2,1.1c0.4,0.3,0.8,0.2,1.1-0.2
			c0.2-0.2,0.4-0.5,0.7-0.9c0,0,0,0,0,0c1.4-1.5,4.2-4,9.3-6.1c4.6-2,9.4-3,14.5-3.1c20.5-0.2,37.3,16.3,37.5,36.8
			c0.1,20.5-16.4,37.3-36.9,37.5c-5,0-9.9-0.9-14.5-2.8c-6.3-2.5-9.2-5.6-10.1-6.9c-0.3-0.3-0.7-0.4-1.1-0.2
			c-0.3,0.3-0.4,0.7-0.2,1.1c9.5,13.7,25.1,21.8,41.8,21.6c27.7-0.2,50-23,49.8-50.6C93,176.5,70.2,154.2,42.5,154.4z M90.2,216.5
			L83.5,205l8.1-0.1C91.6,208.9,91.1,212.8,90.2,216.5z M87.2,224.9l-11.5-19.8l6-0.1l7.8,13.5c0,0,0,0.1,0.1,0.1
			C88.9,220.8,88.1,222.9,87.2,224.9z M82.6,232.8l-16-27.6l7.3-0.1l12.4,21.5C85.3,228.8,84,230.8,82.6,232.8z M82.1,175.7
			c1.4,1.9,2.7,4,3.9,6.2l-12.1,21.7l-7.3,0.1L82.1,175.7z M89.4,189.8C89.3,189.8,89.3,189.8,89.4,189.8l-7.6,13.7l-6,0.1l11.1-20
			C87.8,185.5,88.6,187.6,89.4,189.8z M83.5,203.5l6.4-11.6c1,3.7,1.6,7.6,1.7,11.5L83.5,203.5z M81,174.3l-6.1,11
			c-7.5-15.2-23.1-24.8-40-24.6c-8.6,0.1-16.8,2.6-23.8,7.2c8.6-7.5,19.8-11.8,31.5-11.9C58.1,155.8,72,163,81,174.3z M26.9,166
			c-5.2,0-10.2,1.1-14.9,3.1c6.8-4.4,14.7-6.9,22.9-6.9c16.8-0.2,32,9.5,39.1,24.7l-8.2,14.7C64.2,181.6,47.3,165.8,26.9,166z
			 M27.6,243.4c20.4-0.2,37.1-16.2,38.3-36.3l8.4,14.6C67.6,237,52.4,247,35.7,247.1c-8.4,0.1-16.3-2.2-23.2-6.6
			C17.3,242.5,22.4,243.5,27.6,243.4z M43.4,253.2c-11.6,0.1-22.7-3.9-31.5-11.2c7,4.4,15.2,6.7,23.7,6.6
			c17-0.2,32.4-10.1,39.6-25.4l6.3,10.9C72.8,245.6,59,253.1,43.4,253.2z"/>
	</g>
	<g>
		<g>
			<path d="M175.6,93.6c0,4.2-3.4,7.5-7.5,7.5c-4.2,0-7.5-3.4-7.5-7.5c0-4.2,3.4-7.5,7.5-7.5C172.3,86.1,175.6,89.4,175.6,93.6z"/>
			<path d="M134.1,225.3c-0.7-13.7,3.6-37.5,15.5-72.6c0.7-2.1,1.3-3,5.8-4.6c1.9-0.7,4.5-1.2,6.6-0.9c1.6,0.2,1.9,0.6,2.2,2.1
				c0.5,2.4,0.7,3.3-0.6,6.6c-12.9,33.8-16.8,53.4-17.2,61.5c-0.4,7.6,1.8,16.2,7.9,20.7c6.1,4.5,15.5,4.5,21.1-0.6
				c0.5-0.5,1.3,1.5,0.8,1.9c-5.3,5-12.6,7.9-20,7.9c-2.5,0-4.9-0.3-7.3-1.1C140.8,243.6,134.6,233.8,134.1,225.3z"/>
		</g>
		<path d="M230.6,291.4c3.7-6.1,13.5-38.2,16.6-53.7c0.6-2.9,4-14.3,4-14.3c-1.6,3.8-21.1,25.5-35.4,27.2
			c-16.3,2-26.5-10.6-27.3-25.9c-0.2-3.9,0.1-7.9,0.8-11.7c1.4-7.5,4.4-14.7,7.8-21.6c8.6-17.2,22.3-33.8,40.6-40.9
			c10.1-3.9,24.2-5.4,30.3,5c0.7-2.9,1.7-3.5,6.7-3.5c2.9,0,5.3,0.4,6.5,1.6c0.9,0.9-0.2,3.8-0.6,5.2
			c-0.4,1.7-35.2,124.2-38.4,131.5c-5.1,11.7-9.2,16.9-17.7,21.6c-12.3,6.9-29.5,6.4-42.4-2.4c-4.7-3.2,5-7.6,8.8-5.4
			c2.7,1.6,3.6,3.8,6.5,4.9C211.5,314.5,223.6,302.9,230.6,291.4z M203.4,230.3c2.5,7,7.5,12.2,16.3,10.3
			c6.8-1.5,13.4-5.3,18.4-10.1c5.6-5.4,12.1-11.7,16-20.2c0.4-0.9,7.9-30,9.4-36.7c0.2-0.9,0-3.4-0.4-6.6c-0.3-2.3-1.2-3.4-2.6-5.2
			c-2.5-3.1-6.7-4.4-10.7-4.3c-10.6,0.3-20.9,6.2-28,13.8c-9.8,10.4-17.7,24-20,38.4C200.9,215.3,201.1,223.7,203.4,230.3z"/>
		<path d="M423.1,236.6c-5.8-1.8-7.3-9.1-7.3-16.6c0.1-12.3,1.7-23.2,3.7-36.3c1.2-7.8,3-13.9,4.8-21.6c0.6-2.4,2.7-10.8,3.1-11.8
			c0.1-0.2,12.1-0.1,17.2-0.3c3.5-0.1,5.4-1.1,7-4.3c1.4-2.7,0.5-3.7-2.4-3.6c-7.2,0.1-19.9,0.4-20.6,0c-0.6-0.3,6.4-27.2,7.2-29.4
			c1.7-5.2,5.4-11.9,2.8-17.2c-1.8-3.6-5.7-8.2-8.5-4.8c-1.3,1.5-1.4,3-1.6,6c-0.3,3.6-6.1,29.5-8.1,37.2c-0.6,2.2-1.3,8.3-2,8.4
			c-1,0.2-9.6-0.1-12.4,0c-3,0.1-11.6,7-7.7,7.7c4.6,0.7,12.5,0.2,18.8,0.3c0.2,0,0.4-0.1,0.4,0.1c-5.5,23.4-10.4,47.3-11.4,71.4
			c-0.3,6.9,0.7,15,5.5,20.4c5.4,6.2,16.8,7,22.2,0.4c1.4-1.7,2.2-3.7,2.6-5.9c0-0.9-1.8,0-2.7,0.1
			C429.8,237.3,426.9,237.8,423.1,236.6z"/>
		<path d="M360.5,194.6c1.5-6.4,3.1-12.8,4.6-19.2c1.5-6.4,2.5-14.3-2.7-18.2c-3.2-2.4-7.9-2.2-11.5-0.4c-3.6,1.8-6.5,4.8-9.1,7.9
			c-15.1,17.5-27.2,37.8-35.3,59.4c-2.6,6.9-4.8,14-8.5,20.4c-0.7,1.2-1.5,2.4-2.8,2.8c-1.9,0.5-3.8-1.1-4.4-3
			c-0.5-1.9-0.1-3.9,0.4-5.8c12.2-50.8,24.3-101.8,33.8-153.2c2.2-12,4.3-24.1,5.4-36.3c0.6-6.1,0.9-12.3,0.8-18.4
			c0-3.1-0.1-6.1-0.4-9.2c-0.2-2.6-1.1-5.9-0.7-8.5c0.8-4.9,5.8-9.6,10-11.8c1.8-0.9,4.1-1.6,6-0.7c3.2,1.5,3.1,6,2.5,9.4
			c-4.1,24.7-8.6,49.4-13.4,74c-4.8,24.6-9.8,49.2-14.9,73.7c-1.1,5.5-2.3,11-3.5,16.6c-1.1,5.3-3.4,17.1-4,20.1
			c5.9-9,12.1-18.6,17.7-26.5c4.8-6.8,10.9-14.1,17.8-18.7c6.4-4.3,15.9-5.9,22.5-0.8c4.8,3.6,7.1,9.8,7.4,15.8
			c0.3,6-1.1,12-2.6,17.8c-2.9,11.9-5.8,23.8-8.7,35.7c-1.3,5.1-2.4,11.1,0.9,15.3c3.7,4.8,10.8,4.6,16.8,4
			c-0.5,7.5-9.9,12.2-17.1,9.7c-7.1-2.5-11.5-10-12.5-17.5c-1-7.5,0.8-15.1,2.5-22.4C358.6,202.6,359.6,198.6,360.5,194.6z"/>
	</g>
	<g>
		<path d="M416.6,276.2c-1.2-0.4-2.5-0.2-3.9,0.4c-1.4,0.6-2.6,1.6-3.3,2.8c-1.3,2-1.7,5.1,0.6,6.9c0.8,0.6,1.6,1.1,2.5,1.5
			c0.6,0.3,1.2,0.6,1.8,1c1.3,0.8,2.1,2.2,2.1,3.6c0,0.7-0.1,1.3-0.4,1.8c-0.5,1.1-1.7,1.9-3.2,2.2c-1.5,0.3-3,0-3.9-0.8
			c-0.1-0.1-0.2-0.2-0.3-0.4c-0.2-0.2-0.4-0.5-0.7-0.6c-0.4-0.2-0.8-0.1-1.2,0.2c-0.5,0.4-0.5,0.7-0.2,1.3c0.9,1.5,3.1,2,4.7,2
			c0.2,0,0.3,0,0.5,0c1.7-0.1,3.3-0.8,4.4-2c0.9-0.9,1.5-2.2,1.7-3.8c0.2-1.1,0.2-2.6-0.8-3.9c-0.7-0.9-1.9-1.5-3-2
			c-0.3-0.2-0.7-0.3-1-0.5c-1.1-0.6-2.4-1.4-2.8-2.9c-0.3-1.4,0.3-2.5,0.8-3.3c1-1.4,2.6-2.5,4.2-2.7c0.6-0.1,1.1-0.1,1.5,0.1
			c0.5,0.2,0.9,0.8,1,1.3c0.1,0.6,0,1.2-0.4,1.7c-0.2,0.3-0.5,0.6-0.3,1.1c0.2,0.4,0.7,0.5,1,0.3c0.3-0.1,0.5-0.4,0.6-0.6
			c0.4-0.6,0.5-1.3,0.5-1.9C419,277.9,418,276.7,416.6,276.2z"/>
		<path d="M308.4,321.6c-1.2-0.4-2.5-0.2-3.9,0.4c-1.4,0.6-2.6,1.6-3.3,2.8c-1.3,2-1.7,5.1,0.6,6.9c0.8,0.6,1.6,1.1,2.5,1.5
			c0.6,0.3,1.2,0.6,1.8,1c1.3,0.8,2.1,2.2,2.1,3.6c0,0.7-0.1,1.3-0.4,1.8c-0.5,1.1-1.7,1.9-3.2,2.2c-1.5,0.3-3,0-3.9-0.8
			c-0.1-0.1-0.2-0.2-0.3-0.4c-0.2-0.2-0.4-0.5-0.7-0.6c-0.4-0.2-0.8-0.1-1.2,0.2c-0.5,0.4-0.5,0.7-0.2,1.3c0.9,1.5,3.1,2,4.7,2
			c0.2,0,0.3,0,0.5,0c1.7-0.1,3.3-0.8,4.4-2c0.9-0.9,1.5-2.2,1.7-3.8c0.3-1.5,0-2.9-0.8-3.9c-0.7-0.9-1.9-1.5-3-2
			c-0.3-0.2-0.7-0.3-1-0.5c-1.1-0.6-2.4-1.4-2.8-2.9c-0.3-1.4,0.3-2.5,0.8-3.3c1-1.4,2.6-2.5,4.2-2.7c0.6-0.1,1.1-0.1,1.5,0.1
			c0.5,0.2,0.9,0.8,1,1.3c0.1,0.6,0,1.2-0.4,1.7c-0.2,0.3-0.5,0.6-0.3,1.1c0.2,0.4,0.7,0.5,1,0.3c0.3-0.1,0.5-0.4,0.6-0.6
			c0.4-0.6,0.5-1.3,0.5-1.9C310.8,323.3,309.8,322.1,308.4,321.6z"/>
		<path d="M304.4,273.9c-0.5,0.2-1.5,1.1-1.4,1.6c0.2,5.8-4.1,19.7-6.5,21.2c-0.3,0.2-0.4,0.1-0.5,0.1c-0.7-0.3-0.9-1.5-1-2.3
			c0-0.2-0.1-0.3-0.1-0.4c-0.6-2.8,0.4-18.9,0.6-20c0-0.1,0-0.3-0.1-0.4c-0.1-0.1-0.2-0.2-0.3-0.2c-1.1-0.2-2.2,0.6-2.3,0.7
			c-0.2,0.2-0.2,0.5-0.2,0.6l0,0.8c0,1.7-0.1,3.3-0.4,5c-0.3,1.8-1.1,3.7-1.8,5.2c-4.6,10.3-6.4,11.7-7.1,11.6h0c0,0-0.1,0-0.1,0
			c-0.2-0.1-0.4-0.2-0.6-0.6c-0.4-0.8-0.5-1.9-0.5-2.9c-0.1-2.4,0-4.8,0.2-6.9c0.1-1.6,0.3-3.4,0.6-5.4c0.1-0.5,0.1-0.9,0.2-1.4
			c0.2-1.8,0.4-3.6,0.8-5.3c0-0.2,0.2-0.7-0.1-1c0,0-0.1-0.1-0.1-0.1c-0.2-0.1-0.7,0-0.9,0.1c-0.2,0.1-0.7,0.3-1,0.7
			c-0.2,0.2-0.2,0.6-0.3,1c0,0.3-0.1,0.5-0.1,0.8c-0.6,2.8-0.8,5.4-1,8.3c-0.2,2.7-0.3,5.9,0.2,9c0.2,1.4,0.7,4.4,2.7,4.6
			c0,0,0.1,0,0.1,0c2.8,0,7.7-10.4,9-13.7c0,0.4,0,0.9,0,1.4c0.1,3.9,0.2,11.1,3.2,11.5c1.7,0.2,2.6-1.3,3.3-2.4
			c0.1-0.2,0.2-0.4,0.3-0.5c0.2-0.4,5.6-12,6-18.1c0-0.6-0.1-2-0.4-2.5C304.9,274,304.8,273.8,304.4,273.9z"/>
		<path d="M323.1,277.3c-0.5-0.3-1-0.6-1.5-0.8c-0.9-0.3-1.9-0.5-2.9-0.5c0,0,0,0-0.1,0c-2.9,0-5.8,1.4-7.8,3.8
			c-1.6,1.8-2.6,4.2-3,6.8c-0.4,3-0.2,5.3,0.8,7.2c0.2,0.4,0.5,0.8,0.7,1.2c1.5,2,4.2,3.1,6.8,2.9c3.2-0.3,7.6-2.7,9.5-8.7
			c0.8-2.6,0.9-5.2,0.4-7.4C325.6,279.9,324.5,278.3,323.1,277.3z M323,289.7c-0.2,0.6-0.5,1.2-0.8,1.8c-1.2,2.2-3.6,4.8-6.2,5.4
			c-0.3,0.1-0.7,0.1-1,0.1c-1,0-1.9-0.3-2.8-1c-1.6-1.2-2.4-3.1-2.5-5.6c-0.1-2.3,0.5-4.7,1.1-6.2c1.2-3.5,4.9-8.6,9.8-7.1
			c1.9,0.6,3.3,2.4,3.5,5C324.4,284.6,324,287.2,323,289.7z"/>
		<path d="M328.6,338.6c-0.4-0.1-0.8,0.3-1,0.6c-1.3,1.9-2.5,2.7-4.2,2.9c-1.7,0.2-3.6-0.7-4.5-2.2c-0.9-1.3-1.5-3.4-1.4-5.7
			c1-0.3,2.9-0.8,3.1-0.9c3.1-1.2,6.9-3.7,7.5-7.3c0.6-3.5-2.8-4.9-5.6-3.5c-3.4,1.8-5.7,5-6.6,8.7c-0.8,3.1-1.2,6.8,0.9,9.4
			c0.3,0.3,0.6,0.6,0.9,0.8c0.2,0.2,0.5,0.3,0.7,0.5c3.3,1.8,7.5,1.1,10.1-1.5C328.9,340.1,329.7,338.7,328.6,338.6z M320.6,326.4
			c1-1.4,2.4-3,4.1-3.4c1.6-0.3,2.6,1.2,2.3,2.6c-0.4,2.3-2.1,4-4,5.2c-0.9,0.6-2,1.1-3,1.5c-0.2,0.1-1.4,0.4-2.3,0.7
			c0.1-0.4,0.2-0.8,0.3-1.2C318.6,329.9,319.4,328,320.6,326.4z"/>
		<path d="M377,293.2c-0.4-0.1-0.8,0.3-1,0.6c-1.3,1.9-2.5,2.7-4.2,2.9c-1.7,0.2-3.6-0.7-4.5-2.2c-0.9-1.3-1.5-3.4-1.4-5.7
			c1-0.3,2.9-0.8,3.1-0.9c3.1-1.2,6.9-3.7,7.5-7.3c0.6-3.5-2.8-4.9-5.6-3.5c-3.4,1.8-5.7,5-6.6,8.7c-0.8,3.1-1.2,6.8,0.9,9.4
			c0.3,0.3,0.6,0.6,0.9,0.8c0.2,0.2,0.5,0.3,0.7,0.5c3.3,1.8,7.5,1.1,10.1-1.5C377.3,294.7,378.1,293.3,377,293.2z M368.9,281
			c1-1.4,2.4-3,4.1-3.4c1.6-0.3,2.6,1.2,2.3,2.6c-0.4,2.3-2.1,4-4,5.2c-0.9,0.6-2,1.1-3,1.5c-0.2,0.1-1.4,0.4-2.3,0.7
			c0.1-0.4,0.2-0.8,0.3-1.2C367,284.5,367.8,282.6,368.9,281z"/>
		<path d="M355.2,323.6c-1.4,0-3.8,0.1-3.9,0c-0.1-0.1,1.2-5.2,1.4-5.6c0.3-1,1-2.3,0.5-3.3c-0.3-0.7-1.1-1.6-1.6-0.9
			c-0.2,0.3-0.3,0.6-0.3,1.1c0,0.7-1.2,5.6-1.5,7.1c-0.1,0.4-0.2,1.6-0.4,1.6c-0.2,0-1.8,0-2.4,0c-0.6,0-2.2,1.3-1.5,1.5
			c0.9,0.1,2.4,0,3.6,0.1c0,0,0.1,0,0.1,0c-1,4.5-2,9.1-2.2,13.7c0,0.1,0,0.2,0,0.3c0,1.1,0.3,2.6,1.2,3.4c0.3,0.2,0.6,0.4,1,0.5
			c1.9,0.7,4.1-0.1,5.2-1.8c0.3-0.4,0.4-1,0-1.4c-0.3-0.3-0.8-0.1-1.1,0.2c-0.3,0.3-0.4,0.7-0.7,1.1c-0.4,0.6-1,1.1-1.8,1.3
			c-0.3,0.1-0.6,0.1-0.9,0c-0.7-0.3-1-1.1-1.1-1.8c-0.1-0.7,0-1.4,0-2.1c0-2.4,0.3-4.4,0.7-6.9c0.2-1.5,0.6-2.7,0.9-4.1
			c0.1-0.5,0.5-2.1,0.6-2.3c0,0,2.3,0,3.3,0c0.7,0,1-0.2,1.3-0.8C355.9,323.8,355.7,323.6,355.2,323.6z"/>
		<path d="M376.3,340.1c-0.2,0-0.4,0.2-0.5,0.4c-0.1,0.2-0.2,0.4-0.3,0.6c-0.2,0.6-0.7,1-1.2,1.3c-0.8,0.3-1.6,0.1-2.2-0.6
			c-0.9-1.2-0.9-3.1-0.9-4.5c0-0.8,0.1-1.6,0.2-2.3c0.2-2.1,0.6-4.1,1.2-6.1c0.3-0.8,0.5-1.6,0.8-2.5c0.1-0.4,0.6-1.4,0.4-1.9
			c-0.2-0.4-1.3-0.6-2.2-0.4c-0.3,0.1-0.2,0.2-0.2,0.6c-1.1-0.8-2.1-1-3.2-1.2c-1.6-0.2-2.9,0.2-4.6,1.2c-1.6,1-3.3,3-4.2,4.6
			c-1.2,2.2-1.7,4.3-1.8,6c-0.1,1.7,0.1,3.2,0.8,4.8c0.8,1.9,2.7,3.2,4.6,3.2c1.7,0,3.2-0.5,4.6-1.4c0.9-0.6,1.6-1.4,2.2-3.3
			c0.2,1.9,0.9,4,2.9,4.6c1.6,0.5,4-0.1,4.2-1.9c0-0.2,0-0.5-0.1-0.7C376.8,340.2,376.6,340.1,376.3,340.1z M369.7,337.1
			c-0.9,2-1.3,2.6-2.6,3.6c-0.9,0.6-2.6,1-4.1,0.5c-0.8-0.3-1.9-1.4-2.3-2.3c-0.5-1.1-0.5-2.2-0.4-3.5c0.1-1.5,0.2-3.3,1-5.2
			c0.5-1.2,1-2.3,2.6-3.8c0.8-0.8,1.8-1.7,3.6-1.8c1.5-0.1,3,0.4,3.8,1.9C371.2,327,370.1,333.3,369.7,337.1z"/>
		<path d="M340.2,306.3c0,2,3.1,2,3.1,0C343.3,304.3,340.2,304.3,340.2,306.3z"/>
		<path d="M341.2,339.5c-0.3,0-0.6,0.2-0.7,0.5c-0.6,1-1.1,2.5-2.5,2.6c-0.8,0.1-1.6-0.6-1.9-1.4c-0.7-1.6-0.1-3.7,0.2-5.3
			c0.5-2.6,0.7-4.3,1.6-6.9c0.4-1.3,0.7-2.5,1.1-3.7c0.3-0.8,1.1-2.9,1.5-4.2c0-0.1,0.3-0.5,0.1-0.6c-0.7-0.4-1.6,0.4-2.1,0.7
			c-0.4,0.3-0.5,0.6-0.7,1c-0.2,0.5-0.4,1.1-0.6,1.6c-0.4,1.2-0.8,2.4-1.1,3.7c-0.6,2.1-1,4.2-1.5,6.3c-0.6,2.5-0.8,5.3,0.2,7.6
			c1.3,2.7,6.7,2.4,7.2-0.8C341.9,340.2,341.7,339.5,341.2,339.5z"/>
		<path d="M387.8,306.3c0,2,3.1,2,3.1,0C391,304.3,387.8,304.3,387.8,306.3z"/>
		<path d="M388.8,339.5c-0.3,0-0.6,0.2-0.7,0.5c-0.6,1-1.1,2.5-2.5,2.6c-0.8,0.1-1.6-0.6-1.9-1.4c-0.7-1.6-0.1-3.7,0.2-5.3
			c0.5-2.6,0.7-4.3,1.6-6.9c0.4-1.3,0.7-2.5,1.1-3.7c0.3-0.8,1.1-2.9,1.5-4.2c0-0.1,0.3-0.5,0.1-0.6c-0.7-0.4-1.6,0.4-2.1,0.7
			c-0.4,0.3-0.5,0.6-0.7,1c-0.2,0.5-0.4,1.1-0.6,1.6c-0.4,1.2-0.8,2.4-1.1,3.7c-0.6,2.1-1,4.2-1.5,6.3c-0.6,2.5-0.8,5.3,0.2,7.6
			c1.3,2.7,6.7,2.4,7.2-0.8C389.6,340.2,389.3,339.5,388.8,339.5z"/>
		<path d="M358,294.3c-0.7,0.1-1.1,1-1.1,1.1c-0.2,0.3-0.4,0.5-0.6,0.6c-0.3,0.1-0.7,0-0.9-0.3c-0.3-0.4-0.3-1.1-0.3-1.2
			c0-1.7,0.3-3.5,0.6-5.2c0.2-0.9,0.4-1.9,0.5-2.8c0.1-0.4,0.1-0.9,0.2-1.4c0.3-1.8,0.6-3.7,0-5.4c-0.6-1.5-1.9-2.7-3.6-3.2
			c-1.7-0.5-3.5-0.2-4.8,0.7c-1.2,0.8-2,2-2.5,2.7c-0.4-1.5-1.3-2.7-2.6-3.2c-2.5-1.1-5.2,0.2-6.9,1.7c-0.3,0.2-0.5,0.5-0.7,0.8
			c0.4-1.2,0.9-2.7,0.9-2.7c0.2-0.7,0.5-1.5,0.5-1.6c0-0.2-0.1-0.3-0.1-0.4c-0.2-0.2-0.5-0.1-0.5,0c-0.2,0.1-0.9,0.5-1.1,0.6
			c-0.9,0.4-1.2,1.4-1.5,2.3c-0.6,1.5-2.9,10-3.2,17.1c0,0.8,0,1.5,0,2.1c0,0,0,0.1,0,0.1c0,0.4,0,0.6,0.1,0.7
			c0.1,0.1,0.2,0.1,0.3,0.1c0.4,0,0.8-0.4,0.9-0.5c0.6-0.6,0.5-1.3,0.5-1.4c0-0.2,0.1-1,0.1-1c0-2.4,0.9-8.1,0.9-8.1
			c0.3-1.4,1.2-3.9,1.2-3.9c0.3-0.7,0.8-1.5,1.5-2.2c1-1.1,2-1.8,2.9-2.2c1.2-0.4,2.4-0.3,3.3,0.3c1.6,1.1,1.7,3.4,1.6,4.7
			c-0.1,1.7-0.3,3.4-0.7,5c-0.2,1-1.4,8.1-1.5,8.4c-0.1,0.4-0.1,0.7,0.1,0.8c0.1,0.1,0.2,0.1,0.3,0.1c0.4-0.1,0.9-0.7,0.9-0.7
			c0.3-0.3,0.4-0.6,0.4-0.6c0.1-0.3,0.3-1.2,0.3-1.3c0.2-1.3,0.9-6.4,1.4-8.9c0.4-2.2,0.8-4.3,2-6c1.1-1.6,3.1-2.3,4.9-1.8
			c1.7,0.5,2.9,1.9,3.2,3.6c0.1,0.4,0.1,0.7,0.1,1c-0.1,1.7-1,7.5-1,7.5c-0.4,2.2-0.4,3.9-0.4,3.9c-0.1,1.2,0.5,2,1,2.4
			c0.3,0.3,0.7,0.4,1.1,0.5c1.4,0.2,2.3-0.8,2.3-0.9c0.4-0.4,0.6-0.8,0.7-1.1c0.1-0.2,0-0.5-0.2-0.6
			C358.4,294.3,358,294.3,358,294.3z"/>
		<path d="M399.4,295L399.4,295c-0.7,0.1-1.2,1-1.2,1.1c-0.2,0.3-0.4,0.5-0.6,0.6c-0.3,0.1-0.7,0-1-0.3c-0.3-0.5-0.3-1.2-0.3-1.2
			c0.1-2.7,0.6-5.2,1-7.4l0.1-0.4c0.4-2.2,0.9-4.6,0.4-6.8c-0.3-1.6-1.2-2.8-2.3-3.6c-0.5-0.3-1.1-0.6-1.6-0.6
			c-0.8-0.1-2.5-0.1-4.3,1c0,0-0.9,0.5-1.7,1.4c0.7-2,1.1-3.1,1.1-3.3c0-0.1,0-0.5-0.3-0.6c-0.1-0.1-0.3-0.1-0.5,0
			c-0.6,0.3-1.7,0.8-1.8,0.9c0,0-0.3,0.2-0.5,0.7c0,0.1-2.4,7.1-3.3,12.2c0,0.3-1.2,6.5-1,8.5c0,0,0,0.5,0.3,0.7
			c0.1,0,0.2,0.1,0.3,0.1c0.1,0,0.2,0,0.3-0.1c0.1,0,0.6-0.2,0.8-0.4l0.1-0.1l0-0.1c0-0.1,0.1-0.4,0.2-1.1c0-0.1,1-10.2,2.9-13.4
			c0,0,1.5-2.6,2.9-3.9c1.6-1.4,3.4-1.2,3.9-1.1c1.8,0.3,2.5,2.2,2.7,3c0.4,1.4,0.2,2.8,0,4.3c0,0.2-0.1,0.4-0.1,0.7
			c-0.2,1.3-0.4,2.7-0.6,4l-0.1,0.8c-0.4,2.3-0.4,4.1-0.4,4.2c0,1.3,0.6,2.1,1,2.5c0.4,0.3,0.8,0.5,1.3,0.6c1.4,0.1,2.3-0.9,2.3-0.9
			c0.4-0.4,0.6-0.8,0.7-1c0.1-0.2,0.1-0.5-0.1-0.7C399.9,295.1,399.6,295,399.4,295z"/>
		<path d="M406.4,269.7c-0.7-1.2-2.7-0.8-3.1,0.5c-0.2,0.5,0,1.2,0.4,1.5c0.3,0.3,0.8,0.4,1.3,0.2c0,0,0.5-0.2,0.5-0.2
			c0.2,0.2,0,0.5,0,0.7c-0.3,0.8-0.8,1.6-1.6,2.1c-0.2,0.1-0.4,0.2-0.6,0.3c-0.2,0.1-0.4,0.2-0.6,0.2c0.1,0,0.2,0,0.2,0
			c0.6-0.1,1.2-0.4,1.7-0.8c0.6-0.5,1.1-1.1,1.4-1.8C406.4,271.6,406.8,270.5,406.4,269.7z"/>
	</g>
</g>
</svg>
