<svg id="レイヤー_1" data-name="レイヤー 1" xmlns="http://www.w3.org/2000/svg" viewBox="0 0 32 32"><title>twitter</title><path d="M32,6.1a11.8,11.8,0,0,1-3.8,1,6.5,6.5,0,0,0,2.9-3.6,14.1,14.1,0,0,1-4.2,1.6A6.3,6.3,0,0,0,22.2,3a6.5,6.5,0,0,0-6.6,6.6,7.7,7.7,0,0,0,.2,1.5A18.9,18.9,0,0,1,2.2,4.2a7.4,7.4,0,0,0-.9,3.3,6.6,6.6,0,0,0,3,5.5,7.5,7.5,0,0,1-3-.9h0a6.7,6.7,0,0,0,5.3,6.5l-1.8.2H3.6a6.4,6.4,0,0,0,6.1,4.5,12.8,12.8,0,0,1-8.1,2.8H0a18.4,18.4,0,0,0,10.1,3c12,0,18.6-10,18.6-18.7V9.5A13.3,13.3,0,0,0,32,6.1Zm0,0"/></svg>